<?xml version="1.0" standalone="no"?><!DOCTYPE svg PUBLIC "-//W3C//DTD SVG 1.1//EN" "http://www.w3.org/Graphics/SVG/1.1/DTD/svg11.dtd"><svg t="1625131621775" class="icon" viewBox="0 0 1024 1024" version="1.1" xmlns="http://www.w3.org/2000/svg" p-id="2667" xmlns:xlink="http://www.w3.org/1999/xlink" width="200" height="200"><defs><style type="text/css"></style></defs><path d="M863.1 184.2H161.9c-17.7 0-32 14.3-32 32v107c0 17.7 14.3 32 32 32h701.1c17.7 0 32-14.3 32-32v-107c0.1-17.7-14.2-32-31.9-32zM580.2 445.8H162.8c-17.7 0-32 14.3-32 32v107c0 17.7 14.3 32 32 32h417.4c17.7 0 32-14.3 32-32v-107c0-17.7-14.3-32-32-32z m282 0H706.6c-17.7 0-32 14.3-32 32v330c0 17.7 14.3 32 32 32h155.6c17.7 0 32-14.3 32-32v-330c0-17.7-14.3-32-32-32zM580.2 680.8H162.8c-17.7 0-32 14.3-32 32v95c0 17.7 14.3 32 32 32h417.4c17.7 0 32-14.3 32-32v-95c0-17.7-14.3-32-32-32z" p-id="2668"></path></svg> 