<?xml version="1.0" standalone="no"?><!DOCTYPE svg PUBLIC "-//W3C//DTD SVG 1.1//EN" "http://www.w3.org/Graphics/SVG/1.1/DTD/svg11.dtd"><svg t="1625131621775" class="icon" viewBox="0 0 1024 1024" version="1.1" xmlns="http://www.w3.org/2000/svg" p-id="2667" xmlns:xlink="http://www.w3.org/1999/xlink" width="200" height="200"><defs><style type="text/css"></style></defs><path d="M960 225.28v573.44a64 64 0 0 1-64 64H128a64 64 0 0 1-64-64V225.28a64 64 0 0 1 64-64h768a64 64 0 0 1 64 64zM128 225.28v573.44h768V225.28H128z m128 266.24h512a32 32 0 0 1 0 64H256a32 32 0 0 1 0-64z m0-160h256a32 32 0 0 1 0 64H256a32 32 0 0 1 0-64z m448 0h64a32 32 0 0 1 0 64h-64a32 32 0 0 1 0-64z m-448 320h128a32 32 0 0 1 0 64H256a32 32 0 0 1 0-64z m224 0h288a32 32 0 0 1 0 64H480a32 32 0 0 1 0-64z" p-id="2668"></path></svg> 